<?xml version="1.0" encoding="utf-8"?>
<!-- Generator: Adobe Illustrator 25.3.0, SVG Export Plug-In . SVG Version: 6.00 Build 0)  -->
<svg version="1.1" id="Calque_1" xmlns="http://www.w3.org/2000/svg" xmlns:xlink="http://www.w3.org/1999/xlink" x="0px" y="0px"
	 viewBox="0 0 726.4 705.1" style="enable-background:new 0 0 726.4 705.1;" xml:space="preserve">
<style type="text/css">
	.st0{fill:#DEB887;}
	.st1{fill:#FFFFFF;}
	.st2{fill:#CCCCCC;}
	.st3{fill:#111112;}
	.st4{fill:#FFB6B6;}
	.st5{fill:#2F2E41;}
	.st6{fill:#CEA578;}
	.st7{opacity:0.1;enable-background:new    ;}
	.st8{fill:#CACACA;}
</style>
<path class="st0" d="M509.8,702.7c-0.8,0.8-1.6,1.6-2.4,2.4h-91.2c-0.8-0.8-1.5-1.6-2.2-2.4c0,0-0.1-0.1-0.1-0.1
	c-9.9-11-16.1-26.9-20-43.8c-0.2-1-0.5-2-0.7-3.1c-1-4.7-1.9-9.5-2.5-14.2c-0.1-0.8-0.2-1.6-0.3-2.5c-0.9-6.8-1.5-13.5-1.9-19.8
	c0-0.8-0.1-1.6-0.1-2.4c-0.7-12.5-0.7-25.1,0-37.6c0,0,0.1,0,0.4,0c0.7,0,2.3,0.1,4.6,0.2c6.5,0.4,18.9,1.4,33.3,3.8
	c0.8,0.1,1.6,0.3,2.4,0.4c12.3,2,24.3,5,36.2,8.8c0.7,0.2,1.5,0.5,2.2,0.8l0,0l9.1,45.5l3.8-40.5c3,1.3,5.9,2.8,8.7,4.3
	c0.8,0.4,1.5,0.9,2.3,1.3c6.4,3.6,12.2,8.2,17.2,13.5C538,650.4,531.7,679.9,509.8,702.7z"/>
<path class="st1" d="M471.7,645l1.6,1.8c18.3,20.5,29.2,39.4,32.5,56.7c0.1,0.3,0.1,0.5,0.1,0.8l-1.2,0.2l-1.1,0.2
	c-3.4-18.8-16.2-38.3-32.1-56.1c-0.5-0.6-1-1.2-1.6-1.7c-6.8-7.5-14.1-14.7-21.5-21.4c-0.6-0.5-1.2-1.1-1.7-1.6
	c-9.8-8.8-19.7-16.8-28.5-23.5c-0.6-0.5-1.3-0.9-1.9-1.4c-15-11.3-26.6-18.8-29.2-20.5c-0.3-0.2-0.5-0.3-0.5-0.3l0.6-1l0,0l0.6-1
	c0,0,0.6,0.4,1.7,1.1c4,2.6,14.9,9.7,28.3,19.9c0.6,0.5,1.2,0.9,1.9,1.4c7.2,5.5,15,11.7,22.9,18.5c2,1.7,3.9,3.4,5.8,5.1
	c0.6,0.5,1.2,1,1.7,1.6C458.2,631,465.3,638.1,471.7,645z"/>
<path class="st1" d="M427.4,581.4c-0.3,0.7-0.6,1.3-0.9,1.9c-2.3,4.9-5.2,9.6-8.7,13.8c-0.5,0.6-1,1.2-1.6,1.8
	c-1.5,1.6-3,3.2-4.7,4.7c-6.7,6.1-14.7,10.7-23.4,13.4c-0.3,0.1-0.5,0.2-0.8,0.3c0,0.8,0.1,1.6,0.1,2.4c0.3-0.1,0.6-0.2,0.8-0.2
	c9.2-2.8,17.7-7.6,24.8-14c1.7-1.6,3.4-3.2,5-5c0.5-0.6,1.1-1.2,1.6-1.8c3.7-4.5,6.8-9.4,9.2-14.8c0.3-0.6,0.6-1.3,0.8-1.9
	C429,581.6,428.2,581.5,427.4,581.4z"/>
<path class="st1" d="M465.5,590.7c-0.1,0.6-0.3,1.2-0.4,1.8c-2.7,11.2-8.5,21.5-16.7,29.7c-0.6,0.6-1.2,1.1-1.8,1.7
	c-0.2,0.2-0.4,0.3-0.5,0.5c-15.1,13.7-35.9,19.2-55.8,14.8c-0.2,0-0.5-0.1-0.7-0.2c0.1,0.8,0.2,1.7,0.4,2.5c0.2,0.1,0.5,0.1,0.7,0.1
	c20.4,4.2,41.6-1.5,57-15.5c0.2-0.2,0.5-0.4,0.7-0.7c0.6-0.6,1.2-1.1,1.8-1.7c8.4-8.4,14.3-18.9,17.1-30.4c0.1-0.6,0.3-1.2,0.4-1.8
	C467,591.2,466.3,590.9,465.5,590.7z"/>
<path class="st1" d="M488.8,600.9c0,0.6,0,1.1,0,1.7c-0.2,15.8-6.3,31-17.2,42.4c-0.6,0.6-1.1,1.2-1.7,1.8c-0.6,0.6-1.3,1.2-1.9,1.8
	c-20.7,18.6-51.1,21.5-74.9,7.2c-0.2-0.1-0.4-0.2-0.6-0.3c0.2,1.1,0.5,2.1,0.7,3.1c0.2,0.1,0.3,0.2,0.5,0.3
	c24.5,13.6,54.9,10.2,75.7-8.5c0.6-0.6,1.3-1.2,1.9-1.8c0.6-0.6,1.2-1.2,1.7-1.8c11-11.6,17.4-26.9,17.9-42.9c0-0.5,0-1.1,0-1.6
	C490.4,601.8,489.6,601.4,488.8,600.9z"/>
<path class="st0" d="M286.7,165.6H110.9c-3,0-5.5-2.5-5.5-5.5V26.6c0-3,2.5-5.5,5.5-5.5h215.8c3,0,5.5,2.5,5.5,5.5v93.5
	C332.1,145.2,311.8,165.5,286.7,165.6z"/>
<path class="st2" d="M286.7,166.1H110.9c-3.3,0-6-2.7-6-6V26.6c0-3.3,2.7-6,6-6h215.8c3.3,0,6,2.7,6,6v93.5
	C332.6,145.5,312.1,166,286.7,166.1z M110.9,22.6c-2.2,0-4,1.8-4,4v133.5c0,2.2,1.8,4,4,4h175.8c24.3,0,44-19.7,44-44V26.6
	c0-2.2-1.8-4-4-4H110.9z"/>
<path class="st2" d="M284,66.1H153.5c-2.5,0-4.5-2-4.5-4.5c0-2.5,2-4.5,4.5-4.5H284c2.5,0,4.5,2,4.5,4.5
	C288.5,64.1,286.5,66.1,284,66.1z"/>
<path class="st2" d="M284,97.3H153.5c-2.5,0-4.5-2-4.5-4.5c0-2.5,2-4.5,4.5-4.5H284c2.5,0,4.5,2,4.5,4.5
	C288.5,95.2,286.5,97.3,284,97.3C284,97.3,284,97.3,284,97.3z"/>
<path class="st2" d="M284,129.3H153.5c-2.5,0-4.5-2-4.5-4.5c0-2.5,2-4.5,4.5-4.5H284c2.5,0,4.5,2,4.5,4.5
	C288.5,127.2,286.5,129.3,284,129.3C284,129.3,284,129.3,284,129.3z"/>
<circle class="st3" cx="325" cy="27" r="27"/>
<path class="st0" d="M321.4,41c-0.9,0-1.8-0.4-2.4-1.2l-7.4-9.8c-1-1.3-0.7-3.2,0.6-4.2s3.2-0.7,4.2,0.6l0,0l4.8,6.4l12.4-18.5
	c0.9-1.4,2.8-1.8,4.2-0.8c1.4,0.9,1.8,2.8,0.8,4.2l-14.7,22.1C323.3,40.5,322.4,41,321.4,41C321.4,41,321.4,41,321.4,41z"/>
<path class="st0" d="M221.8,281.5H46c-25.1,0-45.5-20.4-45.5-45.5v-93.5c0-3,2.5-5.5,5.5-5.5h215.8c3,0,5.5,2.5,5.5,5.5V276
	C227.3,279,224.8,281.5,221.8,281.5z"/>
<path class="st2" d="M221.8,282H46c-25.4,0-46-20.6-46-46v-93.5c0-3.3,2.7-6,6-6h215.8c3.3,0,6,2.7,6,6V276
	C227.8,279.3,225.1,282,221.8,282z M6,138.5c-2.2,0-4,1.8-4,4V236c0,24.3,19.7,44,44,44h175.8c2.2,0,4-1.8,4-4V142.5
	c0-2.2-1.8-4-4-4H6z"/>
<path class="st2" d="M179.1,182.1H48.7c-2.5,0-4.5-2-4.5-4.5c0-2.5,2-4.5,4.5-4.5c0,0,0,0,0,0h130.5c2.5,0,4.5,2,4.5,4.5
	C183.7,180,181.6,182.1,179.1,182.1C179.1,182.1,179.1,182.1,179.1,182.1z"/>
<path class="st2" d="M179.1,213.2H48.7c-2.5,0-4.5-2-4.5-4.5c0-2.5,2-4.5,4.5-4.5h130.5c2.5,0,4.5,2,4.5,4.5
	S181.6,213.2,179.1,213.2L179.1,213.2z"/>
<path class="st2" d="M179.1,245.2H48.7c-2.5,0-4.5-2-4.5-4.5c0-2.5,2-4.5,4.5-4.5h130.5c2.5,0,4.5,2,4.5,4.5
	S181.6,245.2,179.1,245.2L179.1,245.2z"/>
<circle class="st3" cx="222" cy="144" r="27"/>
<path class="st0" d="M218.4,158c-0.9,0-1.8-0.4-2.4-1.2l-7.4-9.8c-1-1.3-0.7-3.2,0.6-4.2s3.2-0.7,4.2,0.6l4.8,6.4l12.4-18.5
	c0.9-1.4,2.8-1.8,4.2-0.8s1.8,2.8,0.8,4.2l0,0l-14.7,22.1C220.3,157.5,219.4,158,218.4,158C218.4,158,218.4,158,218.4,158z"/>
<path class="st0" d="M440.8,405.9h-246c-25.1,0-45.5-20.4-45.5-45.5V222.9c0-3.9,3.2-7.1,7.1-7.1h284.4c3.9,0,7.1,3.2,7.1,7.1v175.9
	C447.9,402.7,444.7,405.9,440.8,405.9z"/>
<path class="st2" d="M440.8,406.4h-246c-25.4,0-46-20.6-46-46V222.9c0-4.2,3.4-7.6,7.6-7.6h284.4c4.2,0,7.6,3.4,7.6,7.6v175.9
	C448.4,403,445,406.4,440.8,406.4z M156.5,217.3c-3.1,0-5.6,2.5-5.6,5.6v137.5c0,24.3,19.7,44,44,44h246c3.1,0,5.6-2.5,5.6-5.6
	V222.9c0-3.1-2.5-5.6-5.6-5.6H156.5z"/>
<path class="st2" d="M384.6,275H212.7c-3.3,0-6-2.7-6-5.9c0-3.3,2.7-6,5.9-6c0,0,0,0,0,0h171.9c3.3,0,6,2.7,6,5.9
	C390.6,272.4,387.9,275,384.6,275C384.6,275,384.6,275,384.6,275z"/>
<path class="st2" d="M384.6,316H212.7c-3.3,0-6-2.7-6-5.9c0-3.3,2.7-6,5.9-6c0,0,0,0,0,0h171.9c3.3,0,6,2.7,6,6S387.9,316,384.6,316
	L384.6,316z"/>
<path class="st2" d="M384.6,358.2H212.7c-3.3,0-6-2.7-6-6s2.7-6,6-6h171.9c3.3,0,6,2.7,6,5.9C390.6,355.5,387.9,358.2,384.6,358.2
	C384.6,358.2,384.6,358.2,384.6,358.2z"/>
<circle class="st3" cx="441.7" cy="226.6" r="34.1"/>
<path class="st1" d="M437,244.3c-1.2,0-2.3-0.6-3-1.5l-9.3-12.4c-1.3-1.7-0.9-4.1,0.8-5.3c1.7-1.3,4.1-0.9,5.3,0.8l0,0l6.1,8.1
	l15.6-23.5c1.2-1.7,3.5-2.2,5.3-1.1c1.7,1.2,2.2,3.5,1.1,5.3l-18.6,27.9c-0.7,1-1.8,1.7-3.1,1.7C437.1,244.3,437.1,244.3,437,244.3z
	"/>
<polygon class="st4" points="530.1,677.9 516.3,682.5 491.7,631.1 512.2,624.3 "/>
<path class="st5" d="M538.2,690.1l-44.8,12l-0.2-0.6c-1.6-4.7-1.2-6.6,1-11c2.2-4.4,6-7.7,10.6-9.2l0,0l6.1-8.9l17.3,1.1l3.9-1.3
	L538.2,690.1z"/>
<polygon class="st4" points="564.5,690.9 549.8,690.9 542.8,634.4 564.5,634.4 "/>
<path class="st5" d="M568.2,702.1l-47.2,0v-0.6c0-4.9,1.9-6.5,5.4-10c3.4-3.5,8.1-5.4,13-5.4h0l8.6-6.5l16.1,6.5l4.1,0L568.2,702.1z
	"/>
<path class="st4" d="M453,238.3c1.1,5.8,6.8,9.6,12.6,8.4c0.6-0.1,1.2-0.3,1.8-0.5l16.9,17.7l13.2-7.7l-24.2-24.6
	c-2.5-5.4-8.9-7.7-14.3-5.2C454.5,228.5,452,233.4,453,238.3z"/>
<polygon class="st0" points="562.4,327.1 570,319.2 526,278.4 481.6,238.8 469.3,256.1 515.8,299.5 "/>
<path class="st5" d="M535.3,595c0-9.9,0.2-17,0.4-22.7c0.5-16.6,0.6-21.1-5.8-49.7l-1.6-7.4l-9.6,28.9c-3.1,9.2-4.6,18.9-4.7,28.6
	l14.9,89.1h-30.4l-22.2-96.4l0-29.5c-4.1-4.2-4.1-10.9,0-15.1l7.4-44.2l7.5-59.5H573c0,0,14.5,30,0.1,59.7l0,118.1l-7.4,81.6h-22.9
	L535.3,595z"/>
<path class="st0" d="M568,424.5l-76.6-6.4l-0.4,0l6.1-110.1c0.7-14.2,10-26.4,23.5-31v-7.7c0-4,3.2-7.2,7.2-7.2h11.2
	c2.7,0,5.2,1.5,6.4,4l5.5,10.9l20.7,16.6c10.2,8.2,2,90.2,1.6,94.5l5,25c1,5.1-2.3,10.2-7.5,11.2c-0.6,0.1-1.2,0.2-1.8,0.2
	C568.5,424.5,568.3,424.5,568,424.5z"/>
<path class="st4" d="M486.9,453.5c4.6-3.7,5.3-10.5,1.5-15.1c-0.4-0.5-0.8-0.9-1.3-1.3l7.6-23.2l-13-8.1l-10.3,33
	c-3.6,4.8-2.6,11.5,2.2,15.1C477.5,456.8,483,456.7,486.9,453.5L486.9,453.5z"/>
<polygon class="st6" points="513.6,295.6 503,292.1 487.8,360 473.8,427.6 494.9,430.7 511.2,358.9 "/>
<ellipse transform="matrix(0.1602 -0.9871 0.9871 0.1602 214.046 711.4081)" class="st4" cx="525.1" cy="229.9" rx="25.2" ry="25.2"/>
<path class="st5" d="M491.2,217.6c0.2-2.4,0.9-4.7,2-6.8c1.2,2.6,4.8,3,7.4,1.7c2.5-1.3,4.2-3.7,6-5.9c4.7-5.7,11.2-10.4,18.6-11.2
	c7.4-0.8,15.5,2.9,18.3,9.8c1.3-1.7,3.9-1.9,5.8-0.9c1.8,1.2,3.2,2.8,4.1,4.8c3.8,7.7,4.1,16.6,1,24.6c-3.1,7.9-10.8,18.5-18.7,21.4
	c-4.8,1.8-9.7-0.5-14.8,0c0.3-5.6,1.3-12.5,1.6-18c0.1-3.1,0.2-6.5-1.9-8.7c-2.4-2.3-6.2-2.2-8.5,0.2c-0.2,0.3-0.5,0.5-0.7,0.9
	c-0.3-1.7-0.8-3.4-1.7-4.9c-0.9-1.5-2.6-2.4-4.4-2.3c-2.1,0.3-3.5,2.5-5.4,3.5c-2.3,0.9-4.9,0.3-6.5-1.5
	C491.8,222.4,491,220,491.2,217.6z"/>
<polygon class="st7" points="528.4,358.6 498.8,417.7 521,417.7 "/>
<path class="st8" d="M726.4,703.9c0,0.7-0.5,1.2-1.2,1.2c0,0,0,0,0,0H160.9c-0.7,0-1.2-0.5-1.2-1.2s0.5-1.2,1.2-1.2h564.3
	C725.9,702.7,726.4,703.3,726.4,703.9C726.4,703.9,726.4,703.9,726.4,703.9z"/>
</svg>
