<svg xmlns="http://www.w3.org/2000/svg" viewBox="0 0 407.1 432.21"><g id="OBJECTS"><path d="M48,252.1c11.56,112.69,119.27,162.32,127.73,166,82.11,36.16,206.88,27.93,258-56.2,55-90.45-8.16-214.31-89.41-268.24C287.68,56.12,187.7,29.59,114.24,85.28,38.44,142.74,47.25,245,48,252.1Z" transform="translate(-47.31 -34.29)" style="fill:#deb887;opacity:0.22"/><path d="M156.8,195.76s19.06,39.21,37.41,35.5c15.08-3,25.39-54,25.39-54l-9.44-2.67-15.81,28.09-24.08-43S156.22,185.61,156.8,195.76Z" transform="translate(-47.31 -34.29)" style="fill:#515151"/><path d="M214.05,170.63s.49-3.13,4.47-4.37,5.35-3.48,7.46-2.86-1.22,4.22-1.22,4.22S216.41,171.39,214.05,170.63Z" transform="translate(-47.31 -34.29)" style="fill:#515151"/><path d="M210.16,174.63s.45-3.9,3.27-5.06,16.73-3.81,19.55-6,5.47-4.87,6.29-3.84-4.63,7-6.46,9.48-13.21,8.06-13.21,8.06S211.53,176.88,210.16,174.63Z" transform="translate(-47.31 -34.29)" style="fill:#515151"/><path d="M170.16,157.79l21.48,33.76s-11.44,20.67-19.15,28.1v-1.34S161.55,178.75,170.16,157.79Z" transform="translate(-47.31 -34.29)" style="fill:#ddc5ab"/><path d="M189.42,189.32c-5.44,8.14-10.27,16.66-15.71,24.8-.27.4.38.78.64.38,5.44-8.14,10.27-16.66,15.71-24.8.27-.4-.38-.78-.64-.38Z" transform="translate(-47.31 -34.29)"/><path d="M194.23,203a75.35,75.35,0,0,1-.65,10.07c-.05.39.56.39.61,0a73.72,73.72,0,0,0,.65-10.07.31.31,0,0,0-.61,0Z" transform="translate(-47.31 -34.29)" style="fill:#141414"/><path d="M194.21,206.38l-2.51,3.69c-.23.32.3.63.52.31l2.52-3.69c.23-.33-.3-.64-.53-.31Z" transform="translate(-47.31 -34.29)" style="fill:#141414"/><polygon points="59.38 391.22 59.38 418.93 70.57 419.82 76.05 393.88 59.38 391.22" style="fill:#595959"/><path d="M129,466.5H104.29s-.69-12,.45-15,4.14,2.19,4.14,2.19,2.66-7.78,6.55-6.81a5.71,5.71,0,0,1,3.57,3.59c.3-.62.73-1.24,1.22-1.06.94.33,1.29,6.42,1.29,6.56,1.06,1.11,2.52,2.38,3.76,2.55C128.14,458.9,130.41,462,129,466.5Z" transform="translate(-47.31 -34.29)" style="fill:#deb887"/><path d="M113.13,454.63a4.62,4.62,0,0,1,6.33-1.05c.33.21.63-.32.3-.53a5.19,5.19,0,0,0-7.06,1.15c-.24.3.19.74.43.43Z" transform="translate(-47.31 -34.29)" style="fill:#fff"/><path d="M113.62,456.59a4.61,4.61,0,0,1,6.32-1.06c.33.22.63-.31.31-.52a5.2,5.2,0,0,0-7.07,1.15c-.24.3.19.74.44.43Z" transform="translate(-47.31 -34.29)" style="fill:#fff"/><path d="M114.75,458.79a3.71,3.71,0,0,1,5.49-1c.32.23.62-.3.31-.53a4.33,4.33,0,0,0-6.33,1.21c-.23.32.3.63.53.31Z" transform="translate(-47.31 -34.29)" style="fill:#fff"/><path d="M104.05,454.93a11,11,0,0,1,2.57,8.32c0,.39.57.39.61,0a11.61,11.61,0,0,0-2.75-8.76c-.26-.3-.69.14-.43.44Z" transform="translate(-47.31 -34.29)" style="fill:#fff"/><path d="M104.37,463.75l24,.25a.31.31,0,0,0,0-.61l-24-.25a.31.31,0,0,0,0,.61Z" transform="translate(-47.31 -34.29)" style="fill:#fff"/><path d="M98.16,261.6s2.93,61.48,1.3,82.42-9.7,79.69,3.8,88.4,21.09,7,27.93,2.31c8.08-5.51,8.55-64.3,9.21-85.79s6.79-76.13-.56-87.34S98.16,261.6,98.16,261.6Z" transform="translate(-47.31 -34.29)" style="fill:#343737"/><path d="M101.91,267.17q1.92,34.15,1.87,68.39,0,17-.55,34.08c-.33,10.95-1,21.89-1.41,32.83-.37,10,.09,20.81,6.08,29.31.28.4.93,0,.65-.37-5.47-7.76-6.25-17.47-6-26.68.23-10.71,1-21.4,1.39-32.1q1.11-33.7.3-67.43-.45-19-1.53-38c0-.48-.77-.49-.75,0Z" transform="translate(-47.31 -34.29)" style="fill:#fbca8c"/><polygon points="109.26 391.22 109.26 418.93 120.45 419.82 125.93 393.88 109.26 391.22" style="fill:#706f6f"/><path d="M164.51,451.5s3.52-6.76,5.6-6,2.92,8.91,2.92,8.91,11.28,3.78,14.43,4,5.71,2,6.11,8.15H155.05s.26-13.9.33-16.29,3.46.6,3.46.6Z" transform="translate(-47.31 -34.29)" style="fill:#deb887"/><path d="M155.47,455.5a5.77,5.77,0,0,1,2.1,8.12.29.29,0,1,0,.49.31,6.35,6.35,0,0,0-2.21-9c-.32-.2-.69.33-.38.53Z" transform="translate(-47.31 -34.29)" style="fill:#fff"/><path d="M155.42,464.28l30.22.32,7,.07c.39,0,.47-.61.08-.61l-30.22-.32-7-.07c-.4,0-.48.61-.08.61Z" transform="translate(-47.31 -34.29)" style="fill:#fff"/><path d="M171.36,456.81c1.58-1.89,3.89-2.42,5.62-1,.29.24.66-.29.38-.53-2-1.62-4.69-.92-6.49,1.22-.27.32.22.62.49.31Z" transform="translate(-47.31 -34.29)" style="fill:#fff"/><path d="M174.55,457.81c1.59-1.89,3.89-2.42,5.62-1,.29.24.66-.29.38-.52-2-1.63-4.69-.93-6.49,1.21-.27.32.23.63.49.31Z" transform="translate(-47.31 -34.29)" style="fill:#fff"/><path d="M177.85,458.81c1.58-1.89,3.89-2.42,5.62-1,.29.23.66-.3.38-.53-2-1.63-4.69-.93-6.49,1.21-.27.32.23.63.49.31Z" transform="translate(-47.31 -34.29)" style="fill:#fff"/><path d="M118.38,276.27a414.12,414.12,0,0,1,35.77,66c6.85,15.85-20.25,73.18-2.65,85.5,16.21,11.35,26.72,4.5,31.75-4.37,4.7-8.29,10.15-63.65,8.92-79.41s-15.53-83.94-20.83-89.2S118.38,276.27,118.38,276.27Z" transform="translate(-47.31 -34.29)" style="fill:#343737"/><path d="M143.43,266.54a429.72,429.72,0,0,1-1.26,46.79c0,.48.72.48.75,0a429.72,429.72,0,0,0,1.26-46.79.38.38,0,0,0-.75,0Z" transform="translate(-47.31 -34.29)" style="fill:#fbca8c"/><path d="M138.74,266.54a82.77,82.77,0,0,0,.34,11.78c.25,2.47.82,6,4,6a.38.38,0,0,0,0-.75c-3.61.06-3.37-5.66-3.53-8.11a85.22,85.22,0,0,1-.1-8.9c0-.48-.73-.48-.75,0Z" transform="translate(-47.31 -34.29)" style="fill:#fbca8c"/><path d="M164.92,263.92a20.92,20.92,0,0,0,10.15,13.28c.42.23.8-.42.38-.65a20.1,20.1,0,0,1-9.81-12.83c-.11-.47-.84-.27-.72.2Z" transform="translate(-47.31 -34.29)" style="fill:#fbca8c"/><path d="M144.4,305.44C153,318.92,162,333.21,163.11,349.6c.54,8.23-1.53,16.07-4.07,23.82A161.3,161.3,0,0,0,152.71,397a119.37,119.37,0,0,0-1.42,27.23c0,.48.78.48.75,0A119,119,0,0,1,153.13,399a146.36,146.36,0,0,1,6.19-24.09c2.51-7.55,4.81-15.23,4.63-23.27a61.06,61.06,0,0,0-5.41-22.73c-3.64-8.42-8.58-16.17-13.49-23.88-.26-.41-.91,0-.65.38Z" transform="translate(-47.31 -34.29)" style="fill:#fbca8c"/><path d="M173.89,215.67c-19.27,11.21-77.35,0-77.35,0s-1.72-53.81,3.1-59.4c3.8-4.4,14.69-10.22,24.16-14.24l.83-.35.46-.19c1.62-.67,3.18-1.28,4.65-1.81l15.59,3.92,2.28,1.19.41.21.52.28c6.05,3.19,18.8,10,21.62,12.51,3.73,3.26,3.94,17.46,2,28.63S173.89,215.67,173.89,215.67Z" transform="translate(-47.31 -34.29)" style="fill:#deb887"/><path d="M140.24,154c-8.71-2.48-13.55-9.63-15.15-12.53,1.62-.67,3.18-1.28,4.65-1.81l15.59,3.92,2.28,1.19.41.21.52.28C149.55,149.33,148.7,156.42,140.24,154Z" transform="translate(-47.31 -34.29)" style="fill:#262626"/><path d="M145.65,139.77v0s0,0,0,0Z" transform="translate(-47.31 -34.29)" style="fill:#4f52a9"/><path d="M171.1,263.84l-.6.16a102.59,102.59,0,0,1-12.3,2.43l-.61.08a121,121,0,0,1-16.05,1.09h-.63c-2.3,0-4.58-.11-6.78-.29-4.75-.4-9-.58-12.77-.63h-.62c-7.19-.07-12.63.32-16.64.5l-.63,0c-3.5.14-5.83.09-7.23-.66-6.35-3.4,0-61.36,0-61.36h.09l10.08-.92.6-.06,16-1.46.62-.06,12.89-1.17.61-.06,16.93-1.55.6-.05,11.75-1.07.61-.06,4.73-.43c.55,4.69,1.16,10.18,1.9,16.16.05.42.1.84.16,1.26,1.63,13,3.88,28.12,7.47,42.12C181.8,259.81,177.63,262,171.1,263.84Z" transform="translate(-47.31 -34.29)" style="fill:#deb887"/><path d="M171.76,185.82a159.67,159.67,0,0,0,2.42,31.63c.09.47.81.27.73-.2a157.65,157.65,0,0,1-2.4-31.43.38.38,0,0,0-.75,0Z" transform="translate(-47.31 -34.29)" style="fill:#383838"/><path d="M107,204.2c-.43,4.33-.93,8.67-1.42,13s-1,8.86-1.43,13.29c-1.16,12.14-1.72,24.58-.05,36.68l-.63,0c-.51-3.68-.81-7.39-1-11.1-.48-13.07,1-26,2.48-39,.49-4.29,1-8.57,1.4-12.85.13-1.35.26-2.7.37-4,1.37-15.81,1.53-32.18-3.12-47.44l.52-.37a95,95,0,0,1,3.85,22.4A188.56,188.56,0,0,1,107,204.2Z" transform="translate(-47.31 -34.29)" style="fill:#262626"/><path d="M123.74,197.53c0,1.72,0,3.43-.1,5.15-.19,5.58-.62,11.13-1.14,16.69-.15,1.59-.31,3.19-.47,4.78-1.42,14.07-3,28.53-.67,42.53h-.62a101,101,0,0,1-1.14-18.56c.2-8.84,1.19-17.64,2.07-26.43.08-.79.15-1.58.23-2.37.52-5.52.93-11,1.12-16.57.09-2.58.13-5.15.11-7.73a197.72,197.72,0,0,0-6.77-49.58l.56-.27a197.07,197.07,0,0,1,5.1,25.48A196.57,196.57,0,0,1,123.74,197.53Z" transform="translate(-47.31 -34.29)" style="fill:#262626"/><path d="M141.54,267.6h-.63A147.61,147.61,0,0,1,137,243.23c-.62-7.6-.79-15.2-.78-22.81,0-6.3.16-12.61.29-18.91.09-4.7.18-9.4.21-14.1.08-15.87.06-33.19-7.81-47.43l.57-.21c3.93,7.17,5.91,15.24,6.88,23.35a207.64,207.64,0,0,1,1,26.4c0,4-.11,7.95-.19,11.93-.11,5.48-.23,11-.27,16.45,0,.85,0,1.7,0,2.55C136.83,236.28,137.64,252.24,141.54,267.6Z" transform="translate(-47.31 -34.29)" style="fill:#262626"/><path d="M158.2,266.43l-.61.08a149.61,149.61,0,0,1-2.72-19c-.75-9-.86-18.08-.84-27.13,0-6.83.1-13.65,0-20.48,0-2.28,0-4.56-.11-6.84-.44-16.7-2.19-33.65-8.3-49.29l.81.42a115.05,115.05,0,0,1,6.22,24.66,229.53,229.53,0,0,1,2,31c.06,6.83,0,13.66,0,20.49,0,.66,0,1.33,0,2C154.64,237.08,155.12,252,158.2,266.43Z" transform="translate(-47.31 -34.29)" style="fill:#262626"/><path d="M171.1,263.84l-.6.16a130,130,0,0,1-2.91-17.33,277.84,277.84,0,0,1-1.14-28.12c0-6.59.05-13.19,0-19.77,0-1.15,0-2.3,0-3.45a199.14,199.14,0,0,0-2-25.82,111,111,0,0,0-2.54-12.36,37.66,37.66,0,0,0-2-5.75l.88.5a41,41,0,0,1,1.81,5.42,117.76,117.76,0,0,1,2.77,14.19A221,221,0,0,1,167,198.72c.09,6.56,0,13.12,0,19.67,0,1.53,0,3.05,0,4.58C167.2,236.66,167.88,250.52,171.1,263.84Z" transform="translate(-47.31 -34.29)" style="fill:#262626"/><path d="M103.06,193.85s-21.7,20.55-23.54,25.8c-1.44,4.12,24.69,42.91,24.69,42.91L97.1,272s-44.89-44.77-41-57.18c1.69-5.37,12-30,30.05-44.14Z" transform="translate(-47.31 -34.29)" style="fill:#444"/><path d="M89.85,264.45s4.17-7,10.24-8.51l2.14,3.26s-7.17,3.87-9.55,8.67C92.68,267.87,89.94,266.32,89.85,264.45Z" transform="translate(-47.31 -34.29)" style="fill:#deb887"/><path d="M95,266.31l1.24-.92c1.24-.91,1.23-3,0-4.74s-3.29-2.33-4.53-1.41l-1.47,1.12.56.68,3.82,4.76Z" transform="translate(-47.31 -34.29)" style="fill:#343737"/><path d="M95,266.31c1.24-.92,1.23-3.05,0-4.74s-3.29-2.34-4.53-1.42-1.23,3.05,0,4.75S93.72,267.23,95,266.31Z" transform="translate(-47.31 -34.29)" style="fill:#deb887"/><path d="M93.93,265.42c.81-.6.8-2,0-3.1s-2.14-1.52-3-.92-.81,2,0,3.1S93.12,266,93.93,265.42Z" transform="translate(-47.31 -34.29)" style="fill:#fff"/><path d="M79.43,218.9a16.78,16.78,0,0,0-8.38-5.3.56.56,0,0,0-.29,1.09,15.65,15.65,0,0,1,7.88,5c.47.55,1.26-.25.79-.8Z" transform="translate(-47.31 -34.29)" style="fill:#141414"/><path d="M74.47,212.52a17.35,17.35,0,0,1,2.56,5c.22.68,1.31.39,1.09-.3A18.1,18.1,0,0,0,75.44,212c-.43-.58-1.4,0-1,.56Z" transform="translate(-47.31 -34.29)"/><path d="M115.66,270.15s-.22.46-.6,1.19h0a69.74,69.74,0,0,1-10.11,11c-4.08-1.61-8.71-11.14-8.71-11.14l6.19-11.31S112,261.6,119,267.61c3.52,3-7-.61-7-.61Z" transform="translate(-47.31 -34.29)" style="fill:#474747"/><path d="M116.16,268.9a42.48,42.48,0,0,1-12.51,14.21c-.39.28,0,.93.38.64a43.08,43.08,0,0,0,12.77-14.47c.23-.43-.41-.8-.64-.38Z" transform="translate(-47.31 -34.29)" style="fill:#fbca8c"/><path d="M108.44,149.68c-15.07,4.94-27.87,19.11-34.52,28.89l25.47,24.15s10.06-6,13.42-21.25C116.52,164.72,108.44,149.68,108.44,149.68Z" transform="translate(-47.31 -34.29)" style="fill:#e0c3a4"/><path d="M77.31,176.11c8.7,7.66,17,15.81,25,24.14.34.35.87-.18.54-.53-8.07-8.33-16.36-16.48-25.06-24.14-.36-.32-.89.21-.53.53Z" transform="translate(-47.31 -34.29)"/><path d="M116.21,170.8c-.67,12.41-7.83,24-17.1,31.94-.37.31.16.84.53.53,9.43-8.08,16.64-19.86,17.32-32.47,0-.48-.72-.48-.75,0Z" transform="translate(-47.31 -34.29)"/><path d="M128.84,140.4s6.67,12.86,18.45,7.8l.43-7.95L148,135l.19-3.67-13-7.14C133.68,130.61,131.71,136,128.84,140.4Z" transform="translate(-47.31 -34.29)" style="fill:#4c4c4c"/><path d="M136.94,130.45c3.57,9.25,8.66,11.92,10.67,11.8L148,135Z" transform="translate(-47.31 -34.29)" style="fill:#4c4c4c"/><path d="M135.28,120.14a15,15,0,0,0-.31,1.6,10.16,10.16,0,0,0,.15,3.39,33.49,33.49,0,0,0,1.8,5.35c1.38,3.44,4.62,5.48,8,6.41,9.08,2.47,11.57-3.5,13.35-13,1.1-5.94,3.6-8.72,2.76-11.37h0c-.07-.13-.14-.26-.22-.38a13.52,13.52,0,0,0-8-6.2c-.65-.18-1.27-.34-1.87-.48l-.41-.08-.17,0-.45-.08-.33-.06-.72-.11c-7.53-1-10.53,3-12,7.27C136,115.23,135.74,118.32,135.28,120.14Z" transform="translate(-47.31 -34.29)" style="fill:#5b5b5b"/><path d="M138.52,112.44s2.34,1.42,2.59,3.24.34,3.88,1.84,3.18,2.73-3.36,2.7-6,2-5.5,5.39-4.25,3.09,5.11,5.42,5.06,3.9-1.14,4.78-.56c0,0-1.09,4.36-2,7,0,0,.63.35,2.23-2.77,1.22-2.4,1.12-6.95,1.12-6.95s5.33-4.83,2.25-7-6-2.37-12.21-4.21-14.61-.9-18.54,4.25c-4.66,6.12-3,25.68-.11,25.25C134.34,128.62,135.78,121.44,138.52,112.44Z" transform="translate(-47.31 -34.29)" style="fill:#343737"/><path d="M137.91,123.53a5.17,5.17,0,0,1-2.94-1.79,10.16,10.16,0,0,0,.15,3.39A5.25,5.25,0,0,0,137.91,123.53Z" transform="translate(-47.31 -34.29)" style="fill:#343737"/><path d="M150.74,120.52a.72.72,0,1,1-.32-1.1A.83.83,0,0,1,150.74,120.52Z" transform="translate(-47.31 -34.29)" style="fill:#343737"/><path d="M156.64,122.25a.72.72,0,1,1-1.29-.49c.18-.48.61-.76,1-.62A.83.83,0,0,1,156.64,122.25Z" transform="translate(-47.31 -34.29)" style="fill:#343737"/><path d="M145,121.88c-.13.5.55,1.1,1.51,1.34s1.84,0,2-.47-.55-1.1-1.51-1.34S145.16,121.38,145,121.88Z" transform="translate(-47.31 -34.29)" style="fill:#2b2b2b"/><path d="M157.83,126.23a2.66,2.66,0,0,1-1.46,0c-1-.24-1.64-.84-1.51-1.34s1-.71,2-.47a2.85,2.85,0,0,1,1.24.65Z" transform="translate(-47.31 -34.29)" style="fill:#2b2b2b"/><path d="M151,117.64a1.24,1.24,0,0,0-1.75.07.84.84,0,0,1-1.12.31.84.84,0,0,1-.32-1.12,2.85,2.85,0,0,1,4-.69.84.84,0,0,1,.32,1.12.83.83,0,0,1-1.13.31Z" transform="translate(-47.31 -34.29)" style="fill:#343737"/><path d="M157.5,120a1.56,1.56,0,0,0-1.53-1,.83.83,0,0,1,0-1.65,3.18,3.18,0,0,1,3,1.82c.46,1-.95,1.8-1.42.84Z" transform="translate(-47.31 -34.29)" style="fill:#343737"/><path d="M151.6,124.55a.31.31,0,0,1,.22-.57,3,3,0,0,0,1.3.11,5.54,5.54,0,0,1-.27-2.84.32.32,0,0,1,.36-.25.31.31,0,0,1,.24.36,4.44,4.44,0,0,0,.38,2.74.3.3,0,0,1,0,.26.31.31,0,0,1-.17.2,3.18,3.18,0,0,1-2.07,0Z" transform="translate(-47.31 -34.29)" style="fill:#343737"/><path d="M154.6,128.2l-6.17-2.26s-.86,4.59,2.21,5.34C153.23,131.92,154.6,128.2,154.6,128.2Z" transform="translate(-47.31 -34.29)" style="fill:#fff"/><path d="M150.75,133a2,2,0,0,1-1.91-.79c-.21-.34.32-.65.53-.32a1.37,1.37,0,0,0,1.36.49c.4,0,.41.59,0,.62Z" transform="translate(-47.31 -34.29)" style="fill:#353535"/><path d="M141.37,122a5.22,5.22,0,0,0,.47-4.52c-.68-2-2.05-5-4.06-5.26-2.95-.32-3.93,2.14-4.3,4.8s.47,6.48,4.17,6.82A3.76,3.76,0,0,0,141.37,122Z" transform="translate(-47.31 -34.29)" style="fill:#4c4c4c"/><path d="M138.09,120.69a6.75,6.75,0,0,0,.62-3.31c-.12-1-.83-2.62-2.11-2.53-.44,0-.56-.64-.12-.67a2.76,2.76,0,0,1,2.61,2,6.43,6.43,0,0,1-.37,4.79.34.34,0,0,1-.63-.24Z" transform="translate(-47.31 -34.29)" style="fill:#343737"/><path d="M251,218.35c0-1.6.36-3.34,2-3.34H377.28L425,262.22V449.66c0,1.6-2.23,2.46-3.83,2.46H252.92c-1.61,0-2-.86-2-2.46Z" transform="translate(-47.31 -34.29)" style="fill:#fff;stroke:#595959;stroke-miterlimit:10;stroke-width:0.25px"/><path d="M380.54,261.42h43.15l-45.12-45.6V259C378.57,260.56,378.94,261.42,380.54,261.42Z" transform="translate(-47.31 -34.29)" style="fill:#ffeaac;stroke:#595959;stroke-miterlimit:10;stroke-width:0.25px"/><rect x="218.66" y="211.62" width="15.04" height="11.53" style="fill:#343737"/><path d="M367.35,245.91H288.5v11.53h78.85Zm0,18H266v11.53H367.35ZM266,383.85h142V372.32H266Zm0,24.7h142V397H266Zm0,24.69h142V421.71H266Zm71.16-136.68v11.53h70.79V296.56Zm0,33.92h70.79V319H337.13Zm0,22.39h70.79V341.34H337.13Z" transform="translate(-47.31 -34.29)"/><path d="M304.8,348A29,29,0,1,0,264,343.83,29,29,0,0,0,304.8,348Zm-24-29.54a9.09,9.09,0,1,1-1.33,12.79A9.09,9.09,0,0,1,280.8,318.5Z" transform="translate(-47.31 -34.29)" style="fill:#faf2e6"/><path d="M290.73,330.66a6.61,6.61,0,1,1,1-9.3,6.63,6.63,0,0,1-1,9.3m3,3.69a11.37,11.37,0,1,0-16-1.65,11.35,11.35,0,0,0,16,1.65Z" transform="translate(-47.31 -34.29)" style="fill:#343737"/><path d="M256.48,347.55l4.9,5.9,6.44-3.05A30.75,30.75,0,0,0,279.51,356l.94,6.42,7.62.72,2.27-6.5a30.85,30.85,0,0,0,11.51-4l5.7,4.22,5.9-4.91-3.1-6.38A31,31,0,0,0,316.29,335l6.8-1,.71-7.63-6-2.1a31.59,31.59,0,0,0-3-12.64l4.21-5.71L314,300l-5.78,2.82a31.19,31.19,0,0,0-12.08-7.07l-1.07-6.61-7.66-.69-2.06,5.87a31.56,31.56,0,0,0-14.27,3.83l-5.63-4.18-5.9,4.91,3,6.23a31.32,31.32,0,0,0-6.6,13.22l-6.22,1-.69,7.66,6.33,2.22a31,31,0,0,0,4.86,13.1Zm11.6-7A23.77,23.77,0,1,1,301.51,344,23.81,23.81,0,0,1,268.08,340.55Z" transform="translate(-47.31 -34.29)" style="fill:#353535"/><path d="M245.56,364.59a18.31,18.31,0,1,0-25.36-5.25A18.32,18.32,0,0,0,245.56,364.59Zm-13.21-20.1a5.74,5.74,0,1,1-1.65,7.95A5.74,5.74,0,0,1,232.35,344.49Z" transform="translate(-47.31 -34.29)" style="fill:#faf2e6"/><path d="M237.82,352.76A4.18,4.18,0,1,1,239,347a4.19,4.19,0,0,1-1.19,5.78m1.65,2.52a7.18,7.18,0,1,0-9.95-2.06,7.18,7.18,0,0,0,9.95,2.06Z" transform="translate(-47.31 -34.29)" style="fill:#343737"/><path d="M215.21,361.2l2.7,4,4.25-1.51a19.5,19.5,0,0,0,7,4.24l.18,4.09,4.75.94,1.84-3.94a19.32,19.32,0,0,0,7.49-1.77l3.32,3,4-2.71-1.55-4.21a19.48,19.48,0,0,0,4.42-6.29l4.33-.2.94-4.75-3.65-1.71a19.78,19.78,0,0,0-1.12-8.14l3-3.32-2.7-4-3.82,1.4a19.77,19.77,0,0,0-7.14-5.22l-.25-4.22-4.77-.92-1.68,3.56a19.85,19.85,0,0,0-9.21,1.5l-3.28-3-4,2.71,1.52,4.12a19.66,19.66,0,0,0-5,7.89l-4,.22-.92,4.77,3.84,1.8a19.45,19.45,0,0,0,2.22,8.55Zm7.74-3.66a15,15,0,1,1,20.8,4.3A15,15,0,0,1,223,357.54Z" transform="translate(-47.31 -34.29)" style="fill:#353535"/><path d="M382.15,146.21a45.5,45.5,0,1,1-45.5-45.5A45.5,45.5,0,0,1,382.15,146.21Z" transform="translate(-47.31 -34.29)" style="fill:#e8d5c1"/><path d="M323.51,148.46c-4.95-1.78-8.41-4.78-10.29-8.92-3.25-7.18-.47-15.1-.35-15.43l.72-2L325,128.71l-1.74,3.23-7.64-4.42c-.49,2.47-.92,6.68.81,10.46,1.45,3.2,4.22,5.55,8.22,7Z" transform="translate(-47.31 -34.29)" style="fill:#ec8b1e"/><path d="M348.39,148.08c5.08-1.36,8.78-4.07,11-8.05,3.83-6.88,1.71-15,1.61-15.34l-.56-2.08-11.94,5.67,1.48,3.36,8-3.78c.3,2.5.38,6.73-1.65,10.35-1.71,3.07-4.66,5.19-8.77,6.29Z" transform="translate(-47.31 -34.29)" style="fill:#ffbc00"/><path d="M340.27,168.05a9.19,9.19,0,0,1-6.36,1.08,8.37,8.37,0,0,1-2.19-.72c2.58-2.9,2.69-20.46,2.69-20.46l6.5-.55a19.23,19.23,0,0,0-.52,3.9C340.16,157.71,340.27,168.05,340.27,168.05Z" transform="translate(-47.31 -34.29)" style="fill:#ffbc00"/><path d="M340.39,151.3c-3.11,4.19-6.76,12.57-6.48,17.83a8.37,8.37,0,0,1-2.19-.72c2.58-2.9,2.69-20.46,2.69-20.46l6.5-.55A19.23,19.23,0,0,0,340.39,151.3Z" transform="translate(-47.31 -34.29)" style="fill:#ec8b1e"/><path d="M350.17,173.6c-14.38,8.34-27.69-1.14-27.69-1.14.43-.37.86-.72,1.28-1,12.16-9.62,21.54-2.75,25,.61A15.89,15.89,0,0,1,350.17,173.6Z" transform="translate(-47.31 -34.29)" style="fill:#ffbc00"/><path d="M350.17,173.6c-14.38,8.34-27.69-1.14-27.69-1.14.43-.37.86-.72,1.28-1a25.58,25.58,0,0,0,25,.61A15.89,15.89,0,0,1,350.17,173.6Z" transform="translate(-47.31 -34.29)" style="fill:#ec8b1e"/><path d="M341.24,173.1a3.7,3.7,0,0,0,2.55-1.58,2,2,0,0,0-.87-2.27c-1.4-1-3.61-1.19-5.32-1.3a25.93,25.93,0,0,0-6.41.11c-3.25.62-3.3,2.92-.19,4.25A16.41,16.41,0,0,0,341.24,173.1Z" transform="translate(-47.31 -34.29)" style="fill:#ffcc5e"/><path d="M354.19,146.91c-.37,1.81-7.14,7.17-14.66,8.39a17.27,17.27,0,0,1-2.7.25h-.32c-8.64,0-15.14-5-15.89-8.41s3.79-26.92,3.79-26.92c8.75-1.37,27.11-.74,27.11-.74s.11.8.26,2.12c.24,2,.61,5.17,1,8.61C353.57,137.41,354.42,145.76,354.19,146.91Z" transform="translate(-47.31 -34.29)" style="fill:#ffbc00"/><path d="M325.93,123.76s-9.13,22.94,10.9,31.79h-.32c-8.64,0-15.14-5-15.89-8.41s3.79-26.92,3.79-26.92c8.75-1.37,27.11-.74,27.11-.74s.11.8.26,2.12C347.61,125.78,338.74,131.59,325.93,123.76Z" transform="translate(-47.31 -34.29)" style="fill:#ec8b1e"/><path d="M324.4,120.23s11.91-10.39,27.12-.74C351.52,119.49,337.8,128,324.4,120.23Z" transform="translate(-47.31 -34.29)" style="fill:#ffbc00"/><path d="M348.25,120.15a25.56,25.56,0,0,1-4.91,1.54,27.15,27.15,0,0,1-11.37.11,23,23,0,0,1-4.32-1.42S336.61,114.46,348.25,120.15Z" transform="translate(-47.31 -34.29)" style="fill:#ec8b1e"/><path d="M343.34,121.69a27.15,27.15,0,0,1-11.37.11A21.56,21.56,0,0,1,343.34,121.69Z" transform="translate(-47.31 -34.29)" style="fill:#d1730c"/><path d="M354.19,146.91c-.37,1.81-7.14,7.17-14.66,8.39a30.19,30.19,0,0,1-5.61-7.45,14.54,14.54,0,0,1-1.86-5.34,11.39,11.39,0,0,1,3.73-9.34,15.46,15.46,0,0,1,9.25-3.82,20,20,0,0,1,7.73.87C353.57,137.41,354.42,145.76,354.19,146.91Z" transform="translate(-47.31 -34.29)" style="fill:#ffcc5e"/><circle cx="409.17" cy="86.94" r="32.61" transform="translate(256.52 457.48) rotate(-87.41)" style="fill:#e8d5c1"/><path d="M431.8,87a22.62,22.62,0,1,1-22.61-22.61A22.61,22.61,0,0,1,431.8,87Z" transform="translate(-47.31 -34.29)" style="fill:#f76e7f"/><path d="M427.85,87A18.67,18.67,0,1,1,409.19,68.3,18.66,18.66,0,0,1,427.85,87Z" transform="translate(-47.31 -34.29)" style="fill:#fff"/><path d="M423.66,87a14.48,14.48,0,1,1-14.47-14.47A14.47,14.47,0,0,1,423.66,87Z" transform="translate(-47.31 -34.29)" style="fill:#f76e7f"/><path d="M419.42,87a10.24,10.24,0,1,1-10.23-10.24A10.23,10.23,0,0,1,419.42,87Z" transform="translate(-47.31 -34.29)" style="fill:#fff"/><path d="M415.42,87a6.23,6.23,0,1,1-6.23-6.23A6.23,6.23,0,0,1,415.42,87Z" transform="translate(-47.31 -34.29)" style="fill:#f76e7f"/><polygon points="370.02 60.85 370.02 68.95 377.04 75.97 377.04 67.84 370.02 60.85" style="fill:#ffbc00"/><polygon points="370.05 60.82 378.15 60.82 385.17 67.84 377.04 67.84 370.05 60.82" style="fill:#ffbc00"/><path d="M426.19,105.82a1.82,1.82,0,0,1-1.31-.55L407.2,87.59A1.85,1.85,0,0,1,409.81,85l17.69,17.69a1.85,1.85,0,0,1,0,2.61A1.81,1.81,0,0,1,426.19,105.82Z" transform="translate(-47.31 -34.29)" style="fill:#343737"/><circle cx="230.86" cy="89.64" r="55.35" transform="translate(-49.7 -27.87) rotate(-1.58)" style="fill:#e8d5c1"/><path d="M254,74a23.17,23.17,0,1,0-42.12,13.32,32.61,32.61,0,0,1,5.71,18.82v.28H244.1v-.28a35.14,35.14,0,0,1,6.09-19.37A23,23,0,0,0,254,74Z" transform="translate(-47.31 -34.29)" style="fill:#ffbc00"/><path d="M229.65,84.73c-.65-.33-1.71-.83-2.34-1.19a5.21,5.21,0,0,0,1.17-5.48c-1.18-3-5.92-4-6.9-.3a6.07,6.07,0,0,0,1.74,5.54,4.77,4.77,0,0,1-2.68-.42c-2.14-1-3.22-3.45-3.48-5.69-.14-1.22-2-1.29-2,0,.23,4.29,3,8.47,7.72,8.4A5.74,5.74,0,0,0,225.3,85a9.62,9.62,0,0,0,2.4,1.2v22a1,1,0,0,0,1.92,0S230.22,85,229.65,84.73Zm-3.14-4.47a3.26,3.26,0,0,1-1,2,6.54,6.54,0,0,1-1-1.19c-.41-.63-1.1-2-.75-2.73C224.89,75.91,226.66,79,226.51,80.26Z" transform="translate(-47.31 -34.29)" style="fill:#fff"/><path d="M232.1,108.27a1,1,0,0,0,1.92,0v-22a9.62,9.62,0,0,0,2.4-1.2,5.74,5.74,0,0,0,2.38.57c4.73.07,7.49-4.11,7.72-8.4.07-1.29-1.82-1.22-2,0-.26,2.24-1.34,4.67-3.48,5.69a4.75,4.75,0,0,1-2.67.42,6.12,6.12,0,0,0,1.74-5.54c-1-3.71-5.73-2.74-6.91.3a5.23,5.23,0,0,0,1.17,5.48c-.62.36-1.69.86-2.34,1.19S232.1,108.27,232.1,108.27ZM238,78.36c.35.76-.33,2.1-.75,2.73a6.17,6.17,0,0,1-1,1.19,3.26,3.26,0,0,1-1-2C235.06,79,236.83,75.91,238,78.36Z" transform="translate(-47.31 -34.29)" style="fill:#fff"/><rect x="165.21" y="72.09" width="36.69" height="8.89" style="fill:#343737"/><path d="M170.82,76.53h25.45a0,0,0,0,1,0,0V89.14a5.08,5.08,0,0,1-5.08,5.08H175.9a5.08,5.08,0,0,1-5.08-5.08V76.53A0,0,0,0,1,170.82,76.53Z" style="fill:#343737"/><path d="M254,74a23.17,23.17,0,1,0-46.12,3.16A23.2,23.2,0,0,1,233,57.22a4.62,4.62,0,0,0-.51,2.08,7,7,0,0,0,1.91,4.53,14.69,14.69,0,0,0,5.44,4,8,8,0,0,0,4.35.74,5.3,5.3,0,0,0,4.19-3.46,23,23,0,0,1,5.4,12A22.35,22.35,0,0,0,254,74Z" transform="translate(-47.31 -34.29)" style="fill:#ffd75d"/><circle cx="82.16" cy="93" r="32.61" transform="translate(-52.35 -29.58) rotate(-3.18)" style="fill:#e8d5c1"/><rect x="61.07" y="100.11" width="25.66" height="4.18" rx="1.67" transform="translate(-97.93 47.9) rotate(-45)" style="fill:#ec8b1e"/><rect x="73.4" y="96.25" width="6.59" height="6.59" rx="0.47" transform="translate(-95.24 49.1) rotate(-45)" style="fill:#a53d31"/><circle cx="85.77" cy="89.64" r="14.51" transform="translate(-85.57 52.62) rotate(-45)" style="fill:#070707"/><path d="M97.3,89.64A11.53,11.53,0,1,1,85.77,78.11,11.53,11.53,0,0,1,97.3,89.64Z" transform="translate(-47.31 -34.29)" style="fill:#ffeaac"/><path d="M85.77,78.11A11.53,11.53,0,1,1,74.24,89.64,11.53,11.53,0,0,1,85.77,78.11m0-.58A12.11,12.11,0,1,0,97.88,89.64,12.13,12.13,0,0,0,85.77,77.53Z" transform="translate(-47.31 -34.29)" style="fill:#fff"/><path d="M93.32,82.45c2,3.78-.26,8.85-5,11.33s-10.17,1.43-12.14-2.35.25-8.84,5-11.32S91.34,78.68,93.32,82.45Z" transform="translate(-47.31 -34.29)" style="fill:#fff;opacity:0.5"/><path d="M87.5,81.09c1.07,2-.12,4.78-2.67,6.12s-5.48.76-6.55-1.28.12-4.79,2.67-6.12S86.43,79.05,87.5,81.09Z" transform="translate(-47.31 -34.29)" style="fill:#fff;opacity:0.5"/><circle cx="69.32" cy="91.91" r="7.12" style="fill:#ddc5ab"/><path d="M176.49,119.73a4.78,4.78,0,1,1-4.77-4.78A4.76,4.76,0,0,1,176.49,119.73Z" transform="translate(-47.31 -34.29)" style="fill:#ddc5ab"/><circle cx="228.59" cy="116.46" r="7.04" style="fill:#b4e7e9"/><path d="M372.24,100.45A4.45,4.45,0,1,1,367.8,96,4.45,4.45,0,0,1,372.24,100.45Z" transform="translate(-47.31 -34.29)" style="fill:#b4e7e9"/><path d="M288.5,163.29s-48,8.84-61.82,51.72c-14.16,43.81,16.91,67.33,16.91,67.33" transform="translate(-47.31 -34.29)" style="fill:none;stroke:#343737;stroke-linecap:round;stroke-linejoin:round;stroke-width:2.04924px;stroke-dasharray:2.0492401123046875,4.098490238189697"/><path d="M249.2,148.46s10,40.59,67.49,43.25" transform="translate(-47.31 -34.29)" style="fill:none;stroke:#343737;stroke-linecap:round;stroke-linejoin:round;stroke-width:2.04924px;stroke-dasharray:2.0492401123046875,4.098490238189697"/><path d="M372.53,77.53S329,57,291.54,79.41" transform="translate(-47.31 -34.29)" style="fill:none;stroke:#343737;stroke-linecap:round;stroke-linejoin:round;stroke-width:2.04924px;stroke-dasharray:2.0492401123046875,4.098490238189697"/><path d="M83.76,54.34s49.64-20.05,87.78,22.87" transform="translate(-47.31 -34.29)" style="fill:none;stroke:#343737;stroke-linecap:round;stroke-linejoin:round;stroke-width:2.04924px;stroke-dasharray:2.0492401123046875,4.098490238189697"/><path d="M419.42,124.19s17.8,53.54-20.47,102.4" transform="translate(-47.31 -34.29)" style="fill:none;stroke:#343737;stroke-linecap:round;stroke-linejoin:round;stroke-width:2.04924px;stroke-dasharray:2.0492401123046875,4.098490238189697"/></g></svg>