<svg xmlns="http://www.w3.org/2000/svg" viewBox="0 0 459.34 380.23"><g id="OBJECTS"><circle cx="444.82" cy="399.1" r="31.45" transform="translate(-137.38 139.74) rotate(-22.96)" style="fill:#ddc3a6"/><path d="M453.4,196.36c-.8-3.53-1.63-7.12-2.47-10.8-9.55-42-40.48-79.06-80.87-94.56-47.36-18.17-105-5.58-140.43,30.71-14.44,14.77-25.18,32.75-38.9,48.19C178,184.25,166.57,199.42,147.64,206c-14.09,4.88-29.13,6.44-43.37,10.88C70.85,227.28,43.12,254.44,32,287.64c-9.65,28.81-7,60.87,3.7,89.31,8.6,22.84,22.15,43.51,38,62a42.53,42.53,0,0,0,4.16,4.21H329.4c6.71-4.45,13-9.89,18.59-14.49,37.19-30.37,69.52-68.46,90.21-112,10.3-21.66,17.61-44.87,20.14-68.76C460.33,229.21,457.29,213.47,453.4,196.36Z" transform="translate(-16.93 -65.42)" style="fill:#e5d3c1"/><path d="M26.69,312.41c-2.25,21.68,1.28,44,9,64.54,8.6,22.84,22.15,43.51,38,62a42.53,42.53,0,0,0,4.16,4.21H329.4c6.71-4.45,13-9.89,18.59-14.49,37.19-30.37,69.52-68.46,90.21-112,.67-1.41,1.32-2.82,2-4.24Z" transform="translate(-16.93 -65.42)" style="fill:#deb887"/><line x1="50.51" y1="378.28" x2="330.11" y2="378.28" style="fill:none;stroke:#2d3847;stroke-linecap:round;stroke-miterlimit:10;stroke-width:0.8794289999999999px"/><circle cx="126.72" cy="142.07" r="55.06" transform="translate(-80.27 65.8) rotate(-45)" style="fill:#e5d3c1"/><rect x="271.67" y="178.33" width="19.46" height="68.85" style="fill:#ccb092"/><path d="M247.66,241.83h67.47a5,5,0,0,1,5,5v.38a0,0,0,0,1,0,0H242.69a0,0,0,0,1,0,0v-.38A5,5,0,0,1,247.66,241.83Z" style="fill:#c1a076"/><rect x="228.72" y="175.32" width="105.35" height="61.18" style="fill:#deb887"/><rect x="232.17" y="178.33" width="98.45" height="55.17" style="fill:#fff"/><path d="M286.56,269.39l-2.49-12.9h2.05l1.47,9.4,1.47-9.4h2.05l-2.49,12.9Z" transform="translate(-16.93 -65.42)" style="fill:#deb887"/><path d="M292.07,269.39v-12.9h2v12.9Zm.93-11v-1.87h4.72v1.87Zm0,5.55v-1.86h4.27v1.86Zm0,5.48v-1.87h4.72v1.87Z" transform="translate(-16.93 -65.42)" style="fill:#deb887"/><path d="M298.94,269.39V256.48h1.93v12.91Zm.89-5.46v-1.85h2.36a1.07,1.07,0,0,0,1.18-1.15v-1.37a1.22,1.22,0,0,0-.31-.9,1.15,1.15,0,0,0-.87-.33h-2.36v-1.85h2.22a4.14,4.14,0,0,1,1.77.34,2.51,2.51,0,0,1,1.13,1,3.07,3.07,0,0,1,.39,1.59v1.51a3.22,3.22,0,0,1-.39,1.63,2.57,2.57,0,0,1-1.13,1,4.14,4.14,0,0,1-1.77.35Zm3.76,5.46-1.76-5.86,1.81-.4,2.06,6.26Z" transform="translate(-16.93 -65.42)" style="fill:#deb887"/><path d="M312.85,256.49l-2.42,7.73v5.17H308.5v-5.17l-2.5-7.73h2l1.46,5.45,1.38-5.45Z" transform="translate(-16.93 -65.42)" style="fill:#deb887"/><path d="M286.65,280.09h3.19v3.81a3.81,3.81,0,0,1-.37,1.76,2.52,2.52,0,0,1-1.07,1.12,3.38,3.38,0,0,1-1.71.4,3.84,3.84,0,0,1-1.73-.37,2.56,2.56,0,0,1-1.09-1.07,3.45,3.45,0,0,1-.38-1.7v-6.71a3.93,3.93,0,0,1,.37-1.8,2.57,2.57,0,0,1,1.08-1.13,3.93,3.93,0,0,1,3.37,0,2.5,2.5,0,0,1,1.06,1.1,3.93,3.93,0,0,1,.36,1.75V278h-2v-.81a1.42,1.42,0,0,0-.28-1,.93.93,0,0,0-.78-.34,1.08,1.08,0,0,0-.88.37,1.5,1.5,0,0,0-.31,1V284a1.19,1.19,0,0,0,.32.88,1.27,1.27,0,0,0,.92.32,1.16,1.16,0,0,0,.9-.35,1.36,1.36,0,0,0,.33-1v-2h-1.27Z" transform="translate(-16.93 -65.42)" style="fill:#deb887"/><path d="M294.41,287.18a3.81,3.81,0,0,1-1.76-.38,2.5,2.5,0,0,1-1.11-1.07,3.45,3.45,0,0,1-.39-1.7v-6.88a3.49,3.49,0,0,1,.39-1.71,2.55,2.55,0,0,1,1.11-1.07,4.48,4.48,0,0,1,3.52,0,2.63,2.63,0,0,1,1.12,1.07,3.6,3.6,0,0,1,.38,1.71V284a3.56,3.56,0,0,1-.38,1.7,2.57,2.57,0,0,1-1.12,1.07A3.81,3.81,0,0,1,294.41,287.18Zm0-1.92a1.28,1.28,0,0,0,1-.35,1.39,1.39,0,0,0,.34-1v-6.68a1.37,1.37,0,0,0-.34-1,1.28,1.28,0,0,0-1-.35,1.3,1.3,0,0,0-1,.35,1.37,1.37,0,0,0-.33,1v6.68a1.38,1.38,0,0,0,.33,1A1.3,1.3,0,0,0,294.41,285.26Z" transform="translate(-16.93 -65.42)" style="fill:#deb887"/><path d="M302.24,287.18a3.78,3.78,0,0,1-1.76-.38,2.57,2.57,0,0,1-1.12-1.07A3.56,3.56,0,0,1,299,284v-6.88a3.6,3.6,0,0,1,.38-1.71,2.63,2.63,0,0,1,1.12-1.07,3.92,3.92,0,0,1,1.76-.36,4,4,0,0,1,1.76.36,2.55,2.55,0,0,1,1.11,1.07,3.49,3.49,0,0,1,.38,1.71V284a3.45,3.45,0,0,1-.38,1.7A2.5,2.5,0,0,1,304,286.8,3.84,3.84,0,0,1,302.24,287.18Zm0-1.92a1.3,1.3,0,0,0,1-.35,1.38,1.38,0,0,0,.33-1v-6.68a1.37,1.37,0,0,0-.33-1,1.3,1.3,0,0,0-1-.35,1.27,1.27,0,0,0-1,.35,1.33,1.33,0,0,0-.34,1v6.68a1.34,1.34,0,0,0,.34,1A1.27,1.27,0,0,0,302.24,285.26Z" transform="translate(-16.93 -65.42)" style="fill:#deb887"/><path d="M307,287v-12.9h1.95V287Zm1.26,0v-1.85h2a.91.91,0,0,0,.7-.27,1.13,1.13,0,0,0,.24-.77V277a1.13,1.13,0,0,0-.24-.77.91.91,0,0,0-.7-.27h-2v-1.85h2.1a2.84,2.84,0,0,1,2.08.73,2.76,2.76,0,0,1,.73,2.06v7.32a3.21,3.21,0,0,1-.33,1.51,2.17,2.17,0,0,1-1,.95,3.25,3.25,0,0,1-1.52.33Z" transform="translate(-16.93 -65.42)" style="fill:#deb887"/><path d="M336.95,239.78h3a6.15,6.15,0,0,1,6.15,6.15v1.25a0,0,0,0,1,0,0H330.8a0,0,0,0,1,0,0v-1.25A6.15,6.15,0,0,1,336.95,239.78Z" style="fill:#deb887"/><line x1="9.24" y1="247.18" x2="423.74" y2="247.18" style="fill:none;stroke:#2d3847;stroke-miterlimit:10;stroke-width:0.8794289999999999px"/><rect x="207.04" y="78.95" width="195.93" height="67.84" rx="10.18" style="fill:#fff"/><circle cx="260.19" cy="178.29" r="20.74" transform="translate(-66.79 170.78) rotate(-45)" style="fill:#deb887"/><polygon points="281.72 88.53 284.87 98.25 295.09 98.25 286.83 104.25 289.98 113.97 281.72 107.96 273.45 113.97 276.61 104.25 268.34 98.25 278.56 98.25 281.72 88.53" style="fill:#deb887"/><polygon points="312.52 88.53 315.68 98.25 325.89 98.25 317.63 104.25 320.79 113.97 312.52 107.96 304.25 113.97 307.41 104.25 299.14 98.25 309.36 98.25 312.52 88.53" style="fill:#deb887"/><polygon points="343.32 88.53 346.48 98.25 356.7 98.25 348.43 104.25 351.59 113.97 343.32 107.96 335.06 113.97 338.21 104.25 329.94 98.25 340.16 98.25 343.32 88.53" style="fill:#deb887"/><polygon points="374.12 88.53 377.28 98.25 387.5 98.25 379.23 104.25 382.39 113.97 374.12 107.96 365.86 113.97 369.01 104.25 360.75 98.25 370.97 98.25 374.12 88.53" style="fill:#e0cbb3"/><line x1="271.78" y1="118.88" x2="387.07" y2="118.88" style="fill:none;stroke:#deb887;stroke-miterlimit:10;stroke-width:2.97827px"/><line x1="271.78" y1="126.63" x2="387.07" y2="126.63" style="fill:none;stroke:#deb887;stroke-miterlimit:10;stroke-width:2.97827px"/><path d="M288.7,199.79c16.78.35,34.65.35,51.41,0" transform="translate(-16.93 -65.42)" style="fill:none;stroke:#deb887;stroke-miterlimit:10;stroke-width:2.97827px"/><polygon points="223.54 142.41 223.54 157.56 240.02 141.08 223.54 142.41" style="fill:#fff"/><rect x="318.99" y="281.28" width="128.65" height="44.54" rx="6.68" style="fill:#fff"/><circle cx="359.7" cy="368.97" r="13.62" transform="translate(-78.85 599.79) rotate(-80.82)" style="fill:#deb887"/><polygon points="368.02 287.57 370.1 293.95 376.81 293.95 371.38 297.89 373.45 304.27 368.02 300.33 362.59 304.27 364.67 297.89 359.24 293.95 365.95 293.95 368.02 287.57" style="fill:#deb887"/><polygon points="388.25 287.57 390.32 293.95 397.03 293.95 391.6 297.89 393.68 304.27 388.25 300.33 382.82 304.27 384.89 297.89 379.46 293.95 386.17 293.95 388.25 287.57" style="fill:#deb887"/><polygon points="408.47 287.57 410.55 293.95 417.25 293.95 411.83 297.89 413.9 304.27 408.47 300.33 403.04 304.27 405.12 297.89 399.69 293.95 406.4 293.95 408.47 287.57" style="fill:#deb887"/><polygon points="428.7 287.57 430.77 293.95 437.48 293.95 432.05 297.89 434.13 304.27 428.7 300.33 423.27 304.27 425.34 297.89 419.91 293.95 426.62 293.95 428.7 287.57" style="fill:#deb887"/><line x1="361.5" y1="307.5" x2="437.2" y2="307.5" style="fill:#deb887;stroke:#deb887;stroke-miterlimit:10;stroke-width:1.95554px"/><line x1="361.5" y1="312.58" x2="437.2" y2="312.58" style="fill:#deb887;stroke:#deb887;stroke-miterlimit:10;stroke-width:1.95554px"/><path d="M378.42,383.08c11,.23,22.75.23,33.76,0" transform="translate(-16.93 -65.42)" style="fill:#deb887;stroke:#deb887;stroke-miterlimit:10;stroke-width:1.95554px"/><polygon points="329.82 283.47 329.82 272.65 340.64 283.47 329.82 283.47" style="fill:#fff"/><rect x="67.77" y="16.83" width="76.74" height="102.33" style="fill:#deb887"/><rect x="71.94" y="25.14" width="68.39" height="89.32" style="fill:#fff"/><rect x="85.9" y="12.15" width="40.48" height="19.48" style="fill:#3b495e"/><rect x="81.3" y="41.05" width="6.82" height="6.82" style="fill:#ddd1c3;stroke:#d8cfc5;stroke-miterlimit:10"/><line x1="91.36" y1="42.35" x2="130.98" y2="42.35" style="fill:#ddd1c3;stroke:#d8cfc5;stroke-miterlimit:10;stroke-width:0.916191px"/><line x1="91.36" y1="45.27" x2="130.98" y2="45.27" style="fill:#ddd1c3;stroke:#d8cfc5;stroke-miterlimit:10;stroke-width:0.916191px"/><rect x="81.3" y="52.67" width="6.82" height="6.82" style="fill:#ddd1c3;stroke:#d8cfc5;stroke-miterlimit:10"/><line x1="91.36" y1="53.97" x2="130.98" y2="53.97" style="fill:#ddd1c3;stroke:#d8cfc5;stroke-miterlimit:10;stroke-width:0.916191px"/><line x1="91.36" y1="56.89" x2="130.98" y2="56.89" style="fill:#ddd1c3;stroke:#d8cfc5;stroke-miterlimit:10;stroke-width:0.916191px"/><rect x="81.3" y="64.3" width="6.82" height="6.82" style="fill:#ddd1c3;stroke:#d8cfc5;stroke-miterlimit:10"/><line x1="91.36" y1="65.6" x2="130.98" y2="65.6" style="fill:#ddd1c3;stroke:#d8cfc5;stroke-miterlimit:10;stroke-width:0.916191px"/><line x1="91.36" y1="68.52" x2="130.98" y2="68.52" style="fill:#ddd1c3;stroke:#d8cfc5;stroke-miterlimit:10;stroke-width:0.916191px"/><rect x="81.3" y="75.92" width="6.82" height="6.82" style="fill:#ddd1c3;stroke:#d8cfc5;stroke-miterlimit:10"/><line x1="91.36" y1="77.22" x2="130.98" y2="77.22" style="fill:#ddd1c3;stroke:#d8cfc5;stroke-miterlimit:10;stroke-width:0.916191px"/><line x1="91.36" y1="80.14" x2="130.98" y2="80.14" style="fill:#ddd1c3;stroke:#d8cfc5;stroke-miterlimit:10;stroke-width:0.916191px"/><rect x="81.3" y="87.55" width="6.82" height="6.82" style="fill:#ddd1c3;stroke:#d8cfc5;stroke-miterlimit:10"/><line x1="91.36" y1="88.85" x2="130.98" y2="88.85" style="fill:#ddd1c3;stroke:#d8cfc5;stroke-miterlimit:10;stroke-width:0.916191px"/><line x1="91.36" y1="91.77" x2="130.98" y2="91.77" style="fill:#ddd1c3;stroke:#d8cfc5;stroke-miterlimit:10;stroke-width:0.916191px"/><rect x="81.3" y="99.17" width="6.82" height="6.82" style="fill:#ddd1c3;stroke:#d8cfc5;stroke-miterlimit:10"/><line x1="91.36" y1="100.47" x2="130.98" y2="100.47" style="fill:#ddd1c3;stroke:#d8cfc5;stroke-miterlimit:10;stroke-width:0.916191px"/><line x1="91.36" y1="103.4" x2="130.98" y2="103.4" style="fill:#ddd1c3;stroke:#d8cfc5;stroke-miterlimit:10;stroke-width:0.916191px"/><path d="M98.18,109.31l2.28,3.34a13.8,13.8,0,0,1,6-8.45" transform="translate(-16.93 -65.42)" style="fill:none;stroke:#deb887;stroke-linecap:round;stroke-linejoin:round;stroke-width:2px"/><path d="M98.18,121l2.28,3.34a13.79,13.79,0,0,1,6-8.46" transform="translate(-16.93 -65.42)" style="fill:none;stroke:#deb887;stroke-linecap:round;stroke-linejoin:round;stroke-width:2px"/><path d="M98.18,132.6l2.28,3.34a13.77,13.77,0,0,1,6-8.45" transform="translate(-16.93 -65.42)" style="fill:none;stroke:#deb887;stroke-linecap:round;stroke-linejoin:round;stroke-width:2px"/><path d="M98.18,144.24l2.28,3.34a13.77,13.77,0,0,1,6-8.45" transform="translate(-16.93 -65.42)" style="fill:none;stroke:#deb887;stroke-linecap:round;stroke-linejoin:round;stroke-width:2px"/><path d="M98.18,155.89l2.28,3.33a13.8,13.8,0,0,1,6-8.45" transform="translate(-16.93 -65.42)" style="fill:none;stroke:#deb887;stroke-linecap:round;stroke-linejoin:round;stroke-width:2px"/><circle cx="426.23" cy="259.75" r="22.59" transform="translate(57.75 548.67) rotate(-76.59)" style="fill:#deb887"/><path d="M433,251.23a6.78,6.78,0,0,0-6.77,6.8,6.79,6.79,0,1,0-13.57,0c0,8.47,13.57,15.57,13.57,15.57S439.8,266.5,439.8,258A6.79,6.79,0,0,0,433,251.23Z" transform="translate(-16.93 -65.42)" style="fill:#fff"/><circle cx="219.98" cy="25.42" r="22.59" style="fill:#deb887"/><path d="M243.68,82.32a6.78,6.78,0,0,0-6.77,6.8,6.79,6.79,0,1,0-13.58,0c0,8.46,13.58,15.56,13.58,15.56s13.57-7.1,13.57-15.56A6.79,6.79,0,0,0,243.68,82.32Z" transform="translate(-16.93 -65.42)" style="fill:#fff"/><polygon points="406.78 0 414.22 22.89 438.3 22.89 418.82 37.05 426.26 59.94 406.78 45.79 387.31 59.94 394.75 37.05 375.27 22.89 399.34 22.89 406.78 0" style="fill:#deb887"/><polygon points="31.51 170.9 38.95 193.79 63.02 193.79 43.55 207.94 50.99 230.84 31.51 216.69 12.04 230.84 19.48 207.94 0 193.79 24.07 193.79 31.51 170.9" style="fill:#deb887"/><path d="M127.29,310.62H104.92A8.66,8.66,0,0,1,96.26,302h0a8.66,8.66,0,0,1,8.66-8.65h22.37A8.66,8.66,0,0,1,136,302h0A8.66,8.66,0,0,1,127.29,310.62Z" transform="translate(-16.93 -65.42)" style="fill:#fff"/><path d="M124,311.63H100.64A9.67,9.67,0,0,1,91,302h0a9.67,9.67,0,0,1,9.67-9.67H124a9.67,9.67,0,0,1,9.67,9.67h0A9.67,9.67,0,0,1,124,311.63Z" transform="translate(-16.93 -65.42)" style="fill:#2d3847"/><path d="M95.23,292.36c5.37-6.33,20.64-26,20.64-26a3.38,3.38,0,0,1,5.53.34l12.12,19.83a1,1,0,0,1-.58,1.48l-29.67,21.7A9.61,9.61,0,0,1,92,305.57h0C89.27,301,91.16,297.14,95.23,292.36Z" transform="translate(-16.93 -65.42)" style="fill:#2d3847"/><path d="M158,424.56l-1.88,15.53H194.9a27.66,27.66,0,0,0-14.49-7.44h0c-2.88-.51-8.53-1.85-8.53-1.85l-3-7.27Z" transform="translate(-16.93 -65.42)" style="fill:#2d3847"/><rect x="138.58" y="373.75" width="39.67" height="2.91" rx="1.29" style="fill:#3b495e"/><path d="M182.65,359.1l-8.09,71.66H155.94V340.32h10.71A16.2,16.2,0,0,1,182.65,359.1Z" transform="translate(-16.93 -65.42)" style="fill:#2d3847"/><path d="M207.9,428.13,206,443.66h38.82a27.63,27.63,0,0,0-14.49-7.44h0c-2.87-.51-8.53-1.85-8.53-1.85l-3-7.28Z" transform="translate(-16.93 -65.42)" style="fill:#2d3847"/><rect x="188.52" y="377.32" width="39.67" height="2.91" rx="1.29" style="fill:#3b495e"/><path d="M229.77,378.31,166,371.45l2-28,50,5.37A16.21,16.21,0,0,1,232,369Z" transform="translate(-16.93 -65.42)" style="fill:#3b495e"/><path d="M232.23,368.17l-9.56,66H205.52V349.4h10.71A16.2,16.2,0,0,1,232.23,368.17Z" transform="translate(-16.93 -65.42)" style="fill:#3b495e"/><path d="M113.75,272h52.92a0,0,0,0,1,0,0v18.13a14.5,14.5,0,0,1-14.5,14.5H128.26a14.5,14.5,0,0,1-14.5-14.5V272A0,0,0,0,1,113.75,272Z" style="fill:#3b495e"/><rect x="113.75" y="272.05" width="52.93" height="9.55" style="fill:#2d3847"/><path d="M129.87,217.09v45.4l23.84.07v-7.18l5.87-.07c5,0,6.13-2.71,6.13-7.78V217.09Z" transform="translate(-16.93 -65.42)" style="fill:#6d6d6d"/><path d="M164.61,232.6l4.28,7.72a1.55,1.55,0,0,1-1,2.08l-3.31,1Z" transform="translate(-16.93 -65.42)" style="fill:#727272"/><rect x="112.94" y="151.67" width="35.85" height="3.05" style="fill:#666"/><rect x="112.94" y="151.67" width="23.84" height="45.4" style="fill:#6d6d6d"/><path d="M174.43,200.33a4.51,4.51,0,0,1-3.19,2.33,11.31,11.31,0,0,1-4.06,0c-9.27-1.34-22.79-8.36-31.37-1.56a12.05,12.05,0,0,0-4.41,8.25,15.19,15.19,0,0,1,0,2.32c-.27.91-.63.75-1.69,1-13.2,3.19-5.27,19.11-2.35,27.15a15.8,15.8,0,0,1,.93,7c-.21,1.95.09,2.32,1.6,2.28.6,0,1.21,0,1.82,0h16a9.27,9.27,0,0,0,9.26-9.26V217.21h0c5.67,0,11.11-1,14.77-5.85a13.63,13.63,0,0,0,1.67-2.86A14.49,14.49,0,0,0,174.43,200.33Z" transform="translate(-16.93 -65.42)" style="fill:#2d3847"/><path d="M153.37,217.25c4.64.41,9.29.73,13.95.83,3.32.08,6.32,0,9.1-2,1.37-1,.05-3.27-1.33-2.28-3.19,2.27-7.37,1.66-11.06,1.51s-7.11-.4-10.66-.72c-1.69-.15-1.68,2.49,0,2.64Z" transform="translate(-16.93 -65.42)" style="fill:#2d3847"/><path d="M164,216.94a12.14,12.14,0,0,0,13.51-10c.29-1.66-2.25-2.37-2.55-.7a9.6,9.6,0,0,1-11,8.08c-1.68-.2-1.67,2.44,0,2.64Z" transform="translate(-16.93 -65.42)" style="fill:#2d3847"/><path d="M134.1,210.7c-2.79-.21-1.73-6.84-1.37-8.42s-2.16-2.36-2.54-.7c-.84,3.7-1.47,11.36,3.91,11.76,1.69.12,1.68-2.52,0-2.64Z" transform="translate(-16.93 -65.42)" style="fill:#2d3847"/><path d="M126.82,212.52a9.81,9.81,0,0,1,5.1,1.55c1.45.9,2.77-1.38,1.33-2.28a12.61,12.61,0,0,0-6.43-1.91c-1.69,0-1.69,2.6,0,2.64Z" transform="translate(-16.93 -65.42)" style="fill:#2d3847"/><path d="M159.33,243.29a.85.85,0,0,1-.26.32c-5.68,4-14.58-12.87-6.51-16.2,1.95-.8,4.57.42,5.78,2.05,1.42,1.93,1.11,4.93,1.11,7.17C159.45,237.84,160.06,242,159.33,243.29Z" transform="translate(-16.93 -65.42)" style="fill:#727272"/><path d="M152.8,232.75a1.63,1.63,0,0,1,.29-1.35,1.67,1.67,0,0,1,1.24-.62,2.21,2.21,0,0,1,1.82,1.17,11.45,11.45,0,0,1,1.53,4.34,1.62,1.62,0,1,0-.75,3.12" transform="translate(-16.93 -65.42)" style="fill:none;stroke:#494949;stroke-linecap:round;stroke-linejoin:round;stroke-width:1.75886px"/><path d="M162.68,229.29h2.67a2.34,2.34,0,1,0,0-4.68h-2.67a2.34,2.34,0,1,0,0,4.68Z" transform="translate(-16.93 -65.42)" style="fill:#2d3847"/><path d="M165,230.85c-.21-.45-.48-.73-.78-.73h0c-.28,0-.58.28-.78.73a4.54,4.54,0,0,0-.32,1.74,4.41,4.41,0,0,0,.32,1.75c.22.44.48.72.78.72h0c.29,0,.58-.27.78-.72a4.4,4.4,0,0,0,.33-1.75A4.5,4.5,0,0,0,165,230.85Z" transform="translate(-16.93 -65.42)" style="fill:#2d3847"/><path d="M165.82,244.89a8.16,8.16,0,0,1-2.84-.44s-.33,3.91,2.84,3.84Z" transform="translate(-16.93 -65.42)" style="fill:#2d3847"/><rect x="109.57" y="192.03" width="37.08" height="6.9" style="fill:#fff"/><path d="M186.87,344H127.48l3.26-20.3s-13.67-39.33-16.32-46.77a9.69,9.69,0,0,1-.6-3c-.19-6.33,4.14-11.21,8.85-11.21H164c5,0,10.89.6,10.89,13l5.33,48Z" transform="translate(-16.93 -65.42)" style="fill:#3b495e"/><polygon points="158.13 217.18 144.19 217.18 163.26 258.24 158.13 217.18" style="fill:#2d3847"/><polygon points="198.41 176.06 211.79 183.67 223.17 173.3 220.06 188.38 233.44 195.99 218.14 197.69 215.03 212.77 208.69 198.75 193.39 200.45 204.76 190.08 198.41 176.06" style="fill:#fff"/><path d="M219.69,278.81a13.44,13.44,0,0,1,6.17-7.09,16.2,16.2,0,0,1,9.85-1.77" transform="translate(-16.93 -65.42)" style="fill:none;stroke:#686868;stroke-linecap:round;stroke-miterlimit:10;stroke-width:4.39714px"/><path d="M220.68,274.07c3.62-4.77,8.9-9,15.06-10.26" transform="translate(-16.93 -65.42)" style="fill:none;stroke:#686868;stroke-linecap:round;stroke-miterlimit:10;stroke-width:4.39714px"/><path d="M224.05,270.84c0-5.58,3.87-10.45,8.46-13.74" transform="translate(-16.93 -65.42)" style="fill:none;stroke:#686868;stroke-linecap:round;stroke-miterlimit:10;stroke-width:4.39714px"/><path d="M220.47,271.94c-.05-3.91,2.78-11.06,5-16" transform="translate(-16.93 -65.42)" style="fill:none;stroke:#686868;stroke-linecap:round;stroke-miterlimit:10;stroke-width:4.39714px"/><path d="M223.27,264.74l6.94,3.91A3.07,3.07,0,0,1,231,273l-6.12,10.44a3.32,3.32,0,0,1-4.48,1.22l-6.76-3.78a3.07,3.07,0,0,1-.74-4.34L219,266.28A3.31,3.31,0,0,1,223.27,264.74Z" transform="translate(-16.93 -65.42)" style="fill:#666"/><path d="M227.38,283.36,216.62,303a8.65,8.65,0,0,1-11.75,3.42h0a8.66,8.66,0,0,1-3.43-11.75L212.21,275A8.66,8.66,0,0,1,224,271.6h0A8.66,8.66,0,0,1,227.38,283.36Z" transform="translate(-16.93 -65.42)" style="fill:#fff"/><path d="M226.93,286.86l-11.24,20.48a9.67,9.67,0,0,1-13.13,3.82h0A9.67,9.67,0,0,1,198.74,298L210,277.56a9.66,9.66,0,0,1,13.12-3.82h0A9.66,9.66,0,0,1,226.93,286.86Z" transform="translate(-16.93 -65.42)" style="fill:#3b495e"/><path d="M202.1,311.21l-47.19-23,11.61-24.87c.32-.58,3.28,0,3.75.51l43,31.8a9.61,9.61,0,0,1,1.94,11.8h0A9.62,9.62,0,0,1,202.1,311.21Z" transform="translate(-16.93 -65.42)" style="fill:#3b495e"/><rect x="135.68" y="310.04" width="8.88" height="61.54" style="fill:#fff"/><rect x="135.68" y="310.04" width="8.88" height="28.07" style="fill:#dbc4ab"/><rect x="131.7" y="310.04" width="16.85" height="22.36" style="fill:#5e6b82"/><rect x="131.7" y="310.04" width="16.85" height="13.67" style="fill:#334566"/><path d="M133.66,377.71l-11.19-58.38a5.28,5.28,0,0,1,4.19-6.18h0a5.29,5.29,0,0,1,6.18,4.19L144,375.72Z" transform="translate(-16.93 -65.42)" style="fill:#fff"/><path d="M126.46,340.12H137.2l-4.36-22.78a5.28,5.28,0,0,0-10.37,2Z" transform="translate(-16.93 -65.42)" style="fill:#deb887"/><path d="M193.29,382.08H120.81a6.05,6.05,0,0,1-6-6.06h0a6.05,6.05,0,0,1,6-6h72.48a6.06,6.06,0,0,1,6.06,6h0A6.06,6.06,0,0,1,193.29,382.08Z" transform="translate(-16.93 -65.42)" style="fill:#fff"/><circle cx="118.16" cy="374.18" r="5.35" style="fill:#5e6b82"/><path d="M184,439.6a5.35,5.35,0,1,1-5.34-5.35A5.34,5.34,0,0,1,184,439.6Z" transform="translate(-16.93 -65.42)" style="fill:#5e6b82"/><path d="M126.67,437.75h0a8.16,8.16,0,0,1,8.17-8.16H180a8.16,8.16,0,0,1,8.17,8.16H126.67Z" transform="translate(-16.93 -65.42)" style="fill:#fff"/><rect x="80.36" y="218.07" width="63.03" height="49.79" rx="10.59" style="fill:#fff"/><circle cx="334.5" cy="204.27" r="16.88" style="fill:#deb887"/><polygon points="325.93 195.95 325.93 201.8 337.78 204.52 325.93 207.24 325.93 213.09 347.86 204.52 325.93 195.95" style="fill:#fff"/></g></svg>